<svg width="164" height="66" viewBox="0 0 164 66" fill="none" xmlns="http://www.w3.org/2000/svg">
<g clip-path="url(#clip0_2_71)">
<path d="M164 0H0V66H164V0Z" fill="white"/>
<g clip-path="url(#clip1_2_71)">
<path d="M34.6427 32.3428C34.6427 32.3548 34.6427 32.3608 34.6427 32.3728C34.6487 34.1574 36.0963 35.6126 37.8716 35.6186C37.8835 35.6186 37.8894 35.6186 37.9014 35.6186H47.3497V31.2828C47.3497 29.9114 46.6408 28.6418 45.4731 27.9291L35.9831 22.1261C35.5661 21.8686 35.1074 21.7009 34.6427 21.6171V32.3428Z" fill="#FBB03B"/>
<path d="M30.0019 35.6186C30.0138 35.6186 30.0198 35.6186 30.0317 35.6186C31.807 35.6126 33.2546 34.1574 33.2606 32.3728C33.2606 32.3608 33.2606 32.3548 33.2606 32.3428V21.6171C32.7959 21.7009 32.3372 21.8686 31.9202 22.1261L22.4301 27.9291C21.2625 28.6418 20.5536 29.9114 20.5536 31.2828V35.6186H30.0019Z" fill="#F6D702"/>
<path d="M37.9014 37.002C37.8894 37.002 37.8835 37.002 37.8716 37.002C36.0963 37.008 34.6487 38.4633 34.6427 40.2479C34.6427 40.2599 34.6427 40.2659 34.6427 40.2778V45.3383H43.4476C45.6042 45.3383 47.3557 43.5776 47.3557 41.4097V37.002H37.9014Z" fill="#008943"/>
<path d="M33.2606 40.2778C33.2606 40.2659 33.2606 40.2599 33.2606 40.2479C33.2546 38.4633 31.807 37.008 30.0317 37.002C30.0198 37.002 30.0138 37.002 30.0019 37.002H20.5536V41.4097C20.5536 43.5776 22.305 45.3383 24.4616 45.3383H33.2665V40.2778H33.2606Z" fill="#73B50E"/>
<path d="M41.3983 30.3905C44.0699 30.3905 46.2356 28.2133 46.2356 25.5277C46.2356 22.842 44.0699 20.6649 41.3983 20.6649C38.7267 20.6649 36.5609 22.842 36.5609 25.5277C36.5609 28.2133 38.7267 30.3905 41.3983 30.3905Z" fill="#F6D702"/>
<path d="M45.5744 27.995C45.5625 28.019 45.5506 28.0369 45.5327 28.0609C44.1447 30.3546 41.166 31.0852 38.8844 29.6838C36.6027 28.2885 35.8759 25.2941 37.2699 23.0004C37.2818 22.9765 37.2937 22.9585 37.3116 22.9346L45.4791 27.9291C45.5089 27.9531 45.5387 27.9711 45.5744 27.995Z" fill="#FFFF3D"/>
<path d="M45.5744 27.995C45.5387 27.9711 45.5089 27.9531 45.4732 27.9292L37.3057 22.9346C38.7116 20.6888 41.6545 19.9882 43.9124 21.3716C46.1761 22.7609 46.9089 25.7074 45.5744 27.995Z" fill="#F6D609"/>
</g>
<g clip-path="url(#clip2_2_71)">
<path d="M57.0092 32.015C56.2947 32.015 55.6321 31.898 55.0214 31.6638C54.4087 31.4277 53.8772 31.0931 53.427 30.6602C52.9787 30.2253 52.6293 29.7157 52.3788 29.1312C52.1263 28.5468 52 27.9053 52 27.2068C52 26.5062 52.1263 25.8637 52.3788 25.2793C52.6293 24.6949 52.9817 24.1862 53.4358 23.7533C53.8899 23.3184 54.4204 22.9839 55.0272 22.7497C55.6341 22.5156 56.2996 22.3985 57.0239 22.3985C57.8245 22.3985 58.5488 22.5382 59.1967 22.8176C59.8426 23.0951 60.3859 23.5044 60.8263 24.0455L59.4521 25.3206C59.137 24.9566 58.7856 24.6841 58.398 24.503C58.0085 24.322 57.5847 24.2315 57.1266 24.2315C56.696 24.2315 56.2996 24.3023 55.9375 24.444C55.5773 24.5857 55.2651 24.7893 55.0008 25.055C54.7366 25.3206 54.532 25.6345 54.3871 25.9966C54.2403 26.3606 54.1669 26.764 54.1669 27.2068C54.1669 27.6495 54.2403 28.0519 54.3871 28.414C54.532 28.778 54.7366 29.0929 55.0008 29.3585C55.2651 29.6242 55.5773 29.8278 55.9375 29.9695C56.2996 30.1112 56.696 30.182 57.1266 30.182C57.5847 30.182 58.0085 30.0915 58.398 29.9105C58.7856 29.7275 59.137 29.45 59.4521 29.0781L60.8263 30.3532C60.3859 30.8944 59.8426 31.3066 59.1967 31.59C58.5488 31.8734 57.8196 32.015 57.0092 32.015ZM68.3606 31.8556H66.4286V30.4595L66.2994 30.1555V27.6584C66.2994 27.2156 66.1643 26.8703 65.8942 26.6223C65.626 26.3744 65.214 26.2504 64.6581 26.2504C64.2803 26.2504 63.9083 26.3104 63.5423 26.4305C63.1782 26.5485 62.8679 26.7099 62.6115 26.9145L61.8716 25.4653C62.2592 25.1917 62.726 24.9792 63.2722 24.8277C63.8183 24.6782 64.3732 24.6034 64.937 24.6034C66.0195 24.6034 66.8612 24.8602 67.4621 25.3738C68.0611 25.8874 68.3606 26.6882 68.3606 27.7764V31.8556ZM64.2646 31.9619C63.7087 31.9619 63.233 31.8665 62.8376 31.6756C62.4402 31.4847 62.1358 31.226 61.9244 30.8993C61.713 30.5707 61.6073 30.2027 61.6073 29.7954C61.6073 29.3703 61.7111 28.9984 61.9186 28.6796C62.1261 28.3609 62.4539 28.111 62.9022 27.9299C63.3505 27.7489 63.9357 27.6584 64.6581 27.6584H66.549V28.8656H64.8841C64.4006 28.8656 64.0679 28.9453 63.8858 29.1047C63.7057 29.2641 63.6157 29.4638 63.6157 29.7039C63.6157 29.9695 63.7194 30.1801 63.9269 30.3355C64.1325 30.489 64.4163 30.5658 64.7784 30.5658C65.121 30.5658 65.4293 30.4841 65.7033 30.3208C65.9754 30.1574 66.1741 29.9164 66.2994 29.5976L66.6136 30.554C66.4648 31.0144 66.1917 31.3637 65.7944 31.6018C65.399 31.8419 64.889 31.9619 64.2646 31.9619ZM72.2834 31.8556H70.2222V24.7096H72.1924V26.7286L71.9135 26.1442C72.1249 25.6384 72.4635 25.2557 72.9294 24.996C73.3972 24.7342 73.9659 24.6034 74.6353 24.6034V26.5161C74.5472 26.5062 74.468 26.4993 74.3975 26.4954C74.327 26.4915 74.2526 26.4895 74.1743 26.4895C73.6106 26.4895 73.1545 26.6509 72.8061 26.9736C72.4576 27.2963 72.2834 27.7991 72.2834 28.4819V31.8556ZM80.0644 31.9619C79.44 31.9619 78.9026 31.8291 78.4524 31.5634C78.0042 31.2978 77.6606 30.8924 77.4218 30.3473C77.185 29.8023 77.0665 29.1135 77.0665 28.2812C77.0665 27.4409 77.1918 26.7502 77.4424 26.2091C77.6949 25.6699 78.0453 25.2675 78.4935 25.0019C78.9418 24.7362 79.4654 24.6034 80.0644 24.6034C80.7339 24.6034 81.3358 24.7539 81.8702 25.055C82.4026 25.3561 82.8254 25.7811 83.1386 26.3301C83.4499 26.8791 83.6055 27.5295 83.6055 28.2812C83.6055 29.025 83.4499 29.6714 83.1386 30.2204C82.8254 30.7694 82.4026 31.1974 81.8702 31.5044C81.3358 31.8094 80.7339 31.9619 80.0644 31.9619ZM77.8329 31.8556H75.8627V22H77.9268V26.156L77.7918 28.2694L77.8329 30.3946V31.8556ZM79.7091 30.2617C80.0536 30.2617 80.36 30.182 80.6282 30.0227C80.8963 29.8633 81.1117 29.635 81.2741 29.3379C81.4366 29.0407 81.5178 28.6885 81.5178 28.2812C81.5178 27.866 81.4366 27.5118 81.2741 27.2186C81.1117 26.9273 80.8963 26.702 80.6282 26.5426C80.36 26.3832 80.0536 26.3035 79.7091 26.3035C79.3646 26.3035 79.0563 26.3832 78.7842 26.5426C78.5102 26.702 78.2948 26.9273 78.1382 27.2186C77.9777 27.5118 77.8975 27.866 77.8975 28.2812C77.8975 28.6885 77.9777 29.0407 78.1382 29.3379C78.2948 29.635 78.5102 29.8633 78.7842 30.0227C79.0563 30.182 79.3646 30.2617 79.7091 30.2617ZM88.3622 31.9619C87.6046 31.9619 86.9332 31.8025 86.3479 31.4837C85.7626 31.165 85.3007 30.7291 84.962 30.1761C84.6214 29.6212 84.4511 28.9896 84.4511 28.2812C84.4511 27.5649 84.6214 26.9303 84.962 26.3773C85.3007 25.8224 85.7626 25.3885 86.3479 25.0756C86.9332 24.7608 87.6046 24.6034 88.3622 24.6034C89.1119 24.6034 89.7823 24.7608 90.3735 25.0756C90.9627 25.3885 91.4247 25.8195 91.7594 26.3685C92.0941 26.9175 92.2615 27.5551 92.2615 28.2812C92.2615 28.9896 92.0941 29.6212 91.7594 30.1761C91.4247 30.7291 90.9627 31.165 90.3735 31.4837C89.7823 31.8025 89.1119 31.9619 88.3622 31.9619ZM88.3622 30.2617C88.7067 30.2617 89.016 30.182 89.29 30.0227C89.5621 29.8633 89.7774 29.635 89.936 29.3379C90.0945 29.0407 90.1738 28.6885 90.1738 28.2812C90.1738 27.866 90.0945 27.5118 89.936 27.2186C89.7774 26.9273 89.5621 26.702 89.29 26.5426C89.016 26.3832 88.7067 26.3035 88.3622 26.3035C88.0196 26.3035 87.7113 26.3832 87.4373 26.5426C87.1652 26.702 86.9479 26.9273 86.7854 27.2186C86.621 27.5118 86.5388 27.866 86.5388 28.2812C86.5388 28.6885 86.621 29.0407 86.7854 29.3379C86.9479 29.635 87.1652 29.8633 87.4373 30.0227C87.7113 30.182 88.0196 30.2617 88.3622 30.2617ZM97.9548 24.6034C98.5205 24.6034 99.0256 24.7165 99.4699 24.9428C99.9143 25.1671 100.265 25.5125 100.521 25.9789C100.776 26.4433 100.903 27.0385 100.903 27.7646V31.8556H98.8416V28.0834C98.8416 27.5068 98.7163 27.0818 98.4657 26.8083C98.2152 26.5328 97.8609 26.395 97.4028 26.395C97.0759 26.395 96.7823 26.4639 96.5219 26.6017C96.2636 26.7394 96.061 26.95 95.9141 27.2333C95.7693 27.5167 95.6969 27.8797 95.6969 28.3225V31.8556H93.6356V24.7096H95.6029V26.6873L95.2359 26.091C95.4903 25.6129 95.8554 25.2449 96.3311 24.9871C96.8068 24.7313 97.348 24.6034 97.9548 24.6034ZM105.95 32.015C105.21 32.015 104.502 31.9157 103.824 31.7169C103.145 31.5162 102.598 31.2565 102.183 30.9377L102.911 29.3172C103.307 29.6006 103.775 29.8337 104.318 30.0168C104.86 30.1978 105.408 30.2883 105.962 30.2883C106.385 30.2883 106.726 30.246 106.987 30.1614C107.247 30.0768 107.439 29.9597 107.562 29.8101C107.685 29.6586 107.747 29.4854 107.747 29.2906C107.747 29.0427 107.65 28.8459 107.456 28.7003C107.263 28.5547 107.007 28.4356 106.69 28.3432C106.373 28.2487 106.023 28.1601 105.639 28.0775C105.255 27.9929 104.873 27.8886 104.491 27.7646C104.107 27.6407 103.757 27.4813 103.44 27.2865C103.123 27.0916 102.865 26.8348 102.667 26.5161C102.468 26.1973 102.368 25.79 102.368 25.2941C102.368 24.7628 102.512 24.2777 102.8 23.8389C103.085 23.4001 103.517 23.0508 104.094 22.791C104.672 22.5293 105.396 22.3985 106.267 22.3985C106.849 22.3985 107.421 22.4673 107.985 22.6051C108.549 22.7409 109.046 22.9465 109.477 23.222L108.816 24.8543C108.385 24.6063 107.954 24.4233 107.521 24.3053C107.09 24.1852 106.669 24.1252 106.256 24.1252C105.841 24.1252 105.501 24.1734 105.237 24.2698C104.972 24.3682 104.783 24.4951 104.67 24.6506C104.554 24.8041 104.497 24.9832 104.497 25.1878C104.497 25.4259 104.594 25.6188 104.787 25.7663C104.981 25.912 105.237 26.029 105.554 26.1176C105.871 26.2061 106.221 26.2947 106.605 26.3832C106.989 26.4718 107.371 26.5731 107.753 26.6873C108.137 26.8034 108.487 26.9588 108.804 27.1536C109.121 27.3484 109.379 27.6052 109.576 27.924C109.774 28.2428 109.873 28.6452 109.873 29.1312C109.873 29.6547 109.728 30.1328 109.438 30.5658C109.147 31.0006 108.713 31.3509 108.138 31.6166C107.56 31.8822 106.831 32.015 105.95 32.015ZM120.299 24.6034C120.863 24.6034 121.363 24.7165 121.8 24.9428C122.234 25.1671 122.578 25.5125 122.83 25.9789C123.081 26.4433 123.206 27.0385 123.206 27.7646V31.8556H121.145V28.0834C121.145 27.5068 121.027 27.0818 120.79 26.8083C120.551 26.5328 120.216 26.395 119.786 26.395C119.486 26.395 119.217 26.4639 118.978 26.6017C118.741 26.7394 118.556 26.945 118.423 27.2186C118.292 27.4941 118.226 27.8443 118.226 28.2694V31.8556H116.165V28.0834C116.165 27.5068 116.048 27.0818 115.813 26.8083C115.58 26.5328 115.248 26.395 114.818 26.395C114.518 26.395 114.249 26.4639 114.01 26.6017C113.773 26.7394 113.588 26.945 113.455 27.2186C113.324 27.4941 113.258 27.8443 113.258 28.2694V31.8556H111.197V24.7096H113.164V26.6607L112.794 26.091C113.041 25.603 113.392 25.2331 113.846 24.9812C114.3 24.7293 114.818 24.6034 115.399 24.6034C116.051 24.6034 116.62 24.7697 117.108 25.1022C117.597 25.4328 117.921 25.9395 118.08 26.6223L117.354 26.4216C117.591 25.8647 117.972 25.422 118.497 25.0934C119.021 24.7667 119.622 24.6034 120.299 24.6034ZM131.346 31.8556H129.416V30.4595L129.284 30.1555V27.6584C129.284 27.2156 129.15 26.8703 128.882 26.6223C128.612 26.3744 128.2 26.2504 127.646 26.2504C127.266 26.2504 126.894 26.3104 126.53 26.4305C126.164 26.5485 125.854 26.7099 125.599 26.9145L124.856 25.4653C125.244 25.1917 125.712 24.9792 126.26 24.8277C126.804 24.6782 127.358 24.6034 127.922 24.6034C129.006 24.6034 129.848 24.8602 130.447 25.3738C131.046 25.8874 131.346 26.6882 131.346 27.7764V31.8556ZM127.25 31.9619C126.694 31.9619 126.218 31.8665 125.822 31.6756C125.425 31.4847 125.121 31.226 124.909 30.8993C124.698 30.5707 124.592 30.2027 124.592 29.7954C124.592 29.3703 124.696 28.9984 124.903 28.6796C125.111 28.3609 125.439 28.111 125.887 27.9299C126.337 27.7489 126.924 27.6584 127.646 27.6584H129.534V28.8656H127.869C127.386 28.8656 127.054 28.9453 126.874 29.1047C126.692 29.2641 126.601 29.4638 126.601 29.7039C126.601 29.9695 126.704 30.1801 126.912 30.3355C127.119 30.489 127.403 30.5658 127.763 30.5658C128.108 30.5658 128.417 30.4841 128.691 30.3208C128.963 30.1574 129.161 29.9164 129.284 29.5976L129.601 30.554C129.451 31.0144 129.178 31.3637 128.782 31.6018C128.385 31.8419 127.874 31.9619 127.25 31.9619ZM135.268 31.8556H133.207V24.7096H135.177V26.7286L134.898 26.1442C135.11 25.6384 135.449 25.2557 135.917 24.996C136.385 24.7342 136.953 24.6034 137.62 24.6034V26.5161C137.532 26.5062 137.453 26.4993 137.382 26.4954C137.314 26.4915 137.24 26.4895 137.159 26.4895C136.595 26.4895 136.139 26.6509 135.791 26.9736C135.443 27.2963 135.268 27.7991 135.268 28.4819V31.8556ZM142.007 31.9619C141.171 31.9619 140.519 31.7474 140.051 31.3184C139.586 30.8875 139.353 30.247 139.353 29.3969V23.1275H141.414V29.3703C141.414 29.6714 141.493 29.9046 141.652 30.0699C141.81 30.2332 142.026 30.3149 142.298 30.3149C142.625 30.3149 142.903 30.2263 143.132 30.0492L143.686 31.5103C143.475 31.6599 143.222 31.773 142.926 31.8497C142.63 31.9245 142.324 31.9619 142.007 31.9619ZM143.184 26.4629H138.254V24.869H143.184V26.4629Z" fill="#1F212B"/>
</g>
<path d="M56.18 45.08C55.6467 45.08 55.1533 44.9933 54.7 44.82C54.2533 44.64 53.8633 44.39 53.53 44.07C53.2033 43.7433 52.9467 43.3633 52.76 42.93C52.5733 42.4967 52.48 42.02 52.48 41.5C52.48 40.98 52.5733 40.5033 52.76 40.07C52.9467 39.6367 53.2067 39.26 53.54 38.94C53.8733 38.6133 54.2633 38.3633 54.71 38.19C55.1633 38.01 55.6567 37.92 56.19 37.92C56.73 37.92 57.2267 38.0133 57.68 38.2C58.14 38.38 58.53 38.65 58.85 39.01L58.2 39.64C57.9333 39.36 57.6333 39.1533 57.3 39.02C56.9667 38.88 56.61 38.81 56.23 38.81C55.8367 38.81 55.47 38.8767 55.13 39.01C54.7967 39.1433 54.5067 39.33 54.26 39.57C54.0133 39.81 53.82 40.0967 53.68 40.43C53.5467 40.7567 53.48 41.1133 53.48 41.5C53.48 41.8867 53.5467 42.2467 53.68 42.58C53.82 42.9067 54.0133 43.19 54.26 43.43C54.5067 43.67 54.7967 43.8567 55.13 43.99C55.47 44.1233 55.8367 44.19 56.23 44.19C56.61 44.19 56.9667 44.1233 57.3 43.99C57.6333 43.85 57.9333 43.6367 58.2 43.35L58.85 43.98C58.53 44.34 58.14 44.6133 57.68 44.8C57.2267 44.9867 56.7267 45.08 56.18 45.08ZM64.5901 45.08C64.0567 45.08 63.5601 44.99 63.1001 44.81C62.6467 44.63 62.2534 44.38 61.9201 44.06C61.5867 43.7333 61.3267 43.3533 61.1401 42.92C60.9534 42.4867 60.8601 42.0133 60.8601 41.5C60.8601 40.9867 60.9534 40.5133 61.1401 40.08C61.3267 39.6467 61.5867 39.27 61.9201 38.95C62.2534 38.6233 62.6467 38.37 63.1001 38.19C63.5534 38.01 64.0501 37.92 64.5901 37.92C65.1234 37.92 65.6134 38.01 66.0601 38.19C66.5134 38.3633 66.9067 38.6133 67.2401 38.94C67.5801 39.26 67.8401 39.6367 68.0201 40.07C68.2067 40.5033 68.3001 40.98 68.3001 41.5C68.3001 42.02 68.2067 42.4967 68.0201 42.93C67.8401 43.3633 67.5801 43.7433 67.2401 44.07C66.9067 44.39 66.5134 44.64 66.0601 44.82C65.6134 44.9933 65.1234 45.08 64.5901 45.08ZM64.5901 44.19C64.9767 44.19 65.3334 44.1233 65.6601 43.99C65.9934 43.8567 66.2801 43.67 66.5201 43.43C66.7667 43.1833 66.9567 42.8967 67.0901 42.57C67.2301 42.2433 67.3001 41.8867 67.3001 41.5C67.3001 41.1133 67.2301 40.7567 67.0901 40.43C66.9567 40.1033 66.7667 39.82 66.5201 39.58C66.2801 39.3333 65.9934 39.1433 65.6601 39.01C65.3334 38.8767 64.9767 38.81 64.5901 38.81C64.1967 38.81 63.8334 38.8767 63.5001 39.01C63.1734 39.1433 62.8867 39.3333 62.6401 39.58C62.3934 39.82 62.2001 40.1033 62.0601 40.43C61.9267 40.7567 61.8601 41.1133 61.8601 41.5C61.8601 41.8867 61.9267 42.2433 62.0601 42.57C62.2001 42.8967 62.3934 43.1833 62.6401 43.43C62.8867 43.67 63.1734 43.8567 63.5001 43.99C63.8334 44.1233 64.1967 44.19 64.5901 44.19ZM71.1285 45V38H71.9485L76.5785 43.75H76.1485V38H77.1485V45H76.3285L71.6985 39.25H72.1285V45H71.1285ZM81.9337 45V38.87H79.5337V38H85.3237V38.87H82.9237V45H81.9337ZM87.7129 45V38H90.4429C91.0562 38 91.5796 38.0967 92.0129 38.29C92.4462 38.4833 92.7796 38.7633 93.0129 39.13C93.2462 39.4967 93.3629 39.9333 93.3629 40.44C93.3629 40.9467 93.2462 41.3833 93.0129 41.75C92.7796 42.11 92.4462 42.3867 92.0129 42.58C91.5796 42.7733 91.0562 42.87 90.4429 42.87H88.2629L88.7129 42.41V45H87.7129ZM92.3929 45L90.6129 42.46H91.6829L93.4829 45H92.3929ZM88.7129 42.51L88.2629 42.02H90.4129C91.0529 42.02 91.5362 41.8833 91.8629 41.61C92.1962 41.33 92.3629 40.94 92.3629 40.44C92.3629 39.94 92.1962 39.5533 91.8629 39.28C91.5362 39.0067 91.0529 38.87 90.4129 38.87H88.2629L88.7129 38.37V42.51ZM95.2185 45L98.3885 38H99.3785L102.559 45H101.509L98.6785 38.56H99.0785L96.2485 45H95.2185ZM96.5685 43.25L96.8385 42.45H100.779L101.069 43.25H96.5685ZM107.935 45.08C107.402 45.08 106.908 44.9933 106.455 44.82C106.008 44.64 105.618 44.39 105.285 44.07C104.958 43.7433 104.702 43.3633 104.515 42.93C104.328 42.4967 104.235 42.02 104.235 41.5C104.235 40.98 104.328 40.5033 104.515 40.07C104.702 39.6367 104.962 39.26 105.295 38.94C105.628 38.6133 106.018 38.3633 106.465 38.19C106.918 38.01 107.412 37.92 107.945 37.92C108.485 37.92 108.982 38.0133 109.435 38.2C109.895 38.38 110.285 38.65 110.605 39.01L109.955 39.64C109.688 39.36 109.388 39.1533 109.055 39.02C108.722 38.88 108.365 38.81 107.985 38.81C107.592 38.81 107.225 38.8767 106.885 39.01C106.552 39.1433 106.262 39.33 106.015 39.57C105.768 39.81 105.575 40.0967 105.435 40.43C105.302 40.7567 105.235 41.1133 105.235 41.5C105.235 41.8867 105.302 42.2467 105.435 42.58C105.575 42.9067 105.768 43.19 106.015 43.43C106.262 43.67 106.552 43.8567 106.885 43.99C107.225 44.1233 107.592 44.19 107.985 44.19C108.365 44.19 108.722 44.1233 109.055 43.99C109.388 43.85 109.688 43.6367 109.955 43.35L110.605 43.98C110.285 44.34 109.895 44.6133 109.435 44.8C108.982 44.9867 108.482 45.08 107.935 45.08ZM114.644 45V38.87H112.244V38H118.034V38.87H115.634V45H114.644ZM123.485 45.08C122.952 45.08 122.455 44.99 121.995 44.81C121.542 44.63 121.148 44.38 120.815 44.06C120.482 43.7333 120.222 43.3533 120.035 42.92C119.848 42.4867 119.755 42.0133 119.755 41.5C119.755 40.9867 119.848 40.5133 120.035 40.08C120.222 39.6467 120.482 39.27 120.815 38.95C121.148 38.6233 121.542 38.37 121.995 38.19C122.448 38.01 122.945 37.92 123.485 37.92C124.018 37.92 124.508 38.01 124.955 38.19C125.408 38.3633 125.802 38.6133 126.135 38.94C126.475 39.26 126.735 39.6367 126.915 40.07C127.102 40.5033 127.195 40.98 127.195 41.5C127.195 42.02 127.102 42.4967 126.915 42.93C126.735 43.3633 126.475 43.7433 126.135 44.07C125.802 44.39 125.408 44.64 124.955 44.82C124.508 44.9933 124.018 45.08 123.485 45.08ZM123.485 44.19C123.872 44.19 124.228 44.1233 124.555 43.99C124.888 43.8567 125.175 43.67 125.415 43.43C125.662 43.1833 125.852 42.8967 125.985 42.57C126.125 42.2433 126.195 41.8867 126.195 41.5C126.195 41.1133 126.125 40.7567 125.985 40.43C125.852 40.1033 125.662 39.82 125.415 39.58C125.175 39.3333 124.888 39.1433 124.555 39.01C124.228 38.8767 123.872 38.81 123.485 38.81C123.092 38.81 122.728 38.8767 122.395 39.01C122.068 39.1433 121.782 39.3333 121.535 39.58C121.288 39.82 121.095 40.1033 120.955 40.43C120.822 40.7567 120.755 41.1133 120.755 41.5C120.755 41.8867 120.822 42.2433 120.955 42.57C121.095 42.8967 121.288 43.1833 121.535 43.43C121.782 43.67 122.068 43.8567 122.395 43.99C122.728 44.1233 123.092 44.19 123.485 44.19ZM130.023 45V38H132.753C133.367 38 133.89 38.0967 134.323 38.29C134.757 38.4833 135.09 38.7633 135.323 39.13C135.557 39.4967 135.673 39.9333 135.673 40.44C135.673 40.9467 135.557 41.3833 135.323 41.75C135.09 42.11 134.757 42.3867 134.323 42.58C133.89 42.7733 133.367 42.87 132.753 42.87H130.573L131.023 42.41V45H130.023ZM134.703 45L132.923 42.46H133.993L135.793 45H134.703ZM131.023 42.51L130.573 42.02H132.723C133.363 42.02 133.847 41.8833 134.173 41.61C134.507 41.33 134.673 40.94 134.673 40.44C134.673 39.94 134.507 39.5533 134.173 39.28C133.847 39.0067 133.363 38.87 132.723 38.87H130.573L131.023 38.37V42.51ZM140.629 45.08C140.096 45.08 139.586 45 139.099 44.84C138.612 44.6733 138.229 44.46 137.949 44.2L138.319 43.42C138.586 43.6533 138.926 43.8467 139.339 44C139.752 44.1533 140.182 44.23 140.629 44.23C141.036 44.23 141.366 44.1833 141.619 44.09C141.872 43.9967 142.059 43.87 142.179 43.71C142.299 43.5433 142.359 43.3567 142.359 43.15C142.359 42.91 142.279 42.7167 142.119 42.57C141.966 42.4233 141.762 42.3067 141.509 42.22C141.262 42.1267 140.989 42.0467 140.689 41.98C140.389 41.9133 140.086 41.8367 139.779 41.75C139.479 41.6567 139.202 41.54 138.949 41.4C138.702 41.26 138.502 41.0733 138.349 40.84C138.196 40.6 138.119 40.2933 138.119 39.92C138.119 39.56 138.212 39.23 138.399 38.93C138.592 38.6233 138.886 38.38 139.279 38.2C139.679 38.0133 140.186 37.92 140.799 37.92C141.206 37.92 141.609 37.9733 142.009 38.08C142.409 38.1867 142.756 38.34 143.049 38.54L142.719 39.34C142.419 39.14 142.102 38.9967 141.769 38.91C141.436 38.8167 141.112 38.77 140.799 38.77C140.406 38.77 140.082 38.82 139.829 38.92C139.576 39.02 139.389 39.1533 139.269 39.32C139.156 39.4867 139.099 39.6733 139.099 39.88C139.099 40.1267 139.176 40.3233 139.329 40.47C139.489 40.6167 139.692 40.7333 139.939 40.82C140.192 40.9067 140.469 40.9867 140.769 41.06C141.069 41.1267 141.369 41.2033 141.669 41.29C141.976 41.3767 142.252 41.49 142.499 41.63C142.752 41.77 142.956 41.9567 143.109 42.19C143.262 42.4233 143.339 42.7233 143.339 43.09C143.339 43.4433 143.242 43.7733 143.049 44.08C142.856 44.38 142.556 44.6233 142.149 44.81C141.749 44.99 141.242 45.08 140.629 45.08Z" fill="#2A4500"/>
</g>
<defs>
<clipPath id="clip0_2_71">
<rect width="164" height="66" fill="white"/>
</clipPath>
<clipPath id="clip1_2_71">
<rect width="26.8021" height="24.6765" fill="white" transform="translate(20.5536 20.6617)"/>
</clipPath>
<clipPath id="clip2_2_71">
<rect width="91.6865" height="10.015" fill="white" transform="translate(52 22)"/>
</clipPath>
</defs>
</svg>
